<svg xmlns="http://www.w3.org/2000/svg" height="40" viewBox="0 96 960 960" width="40"><path d="M480 936q-117 0-198.5-81.5T200 656q0-98 59.5-173.833 59.5-75.834 154.167-98.5-24-5-46.334-14.5-22.333-9.5-40-27.167-29.666-30.333-39.166-70.833-9.5-40.5-7.834-82.833 15.666-5 30.832-4.501 15.166.5 26.165 8.166 65.001 6.333 109.835 55Q492 295.666 492.333 363.001q13.667-39 36.834-72.834 23.166-33.834 52.167-62.834 9.666-9.666 23.333-9.666 13.666 0 23.333 9.666 9.667 9.667 9.667 23.334 0 13.666-9.667 23.333-24 24-43 52.167-19 28.166-31 59.5Q646 411 703 485.833 760 560.667 760 656q0 117-81.5 198.5T480 936Z"/></svg>