<svg xmlns="http://www.w3.org/2000/svg" viewBox="0 0 120.13 143.19"><defs><style>.cls-1{fill:#f3f2ed;}.cls-2{fill:#e8cdd3;}.cls-3{fill:#231f20;}.cls-4{fill:none;stroke:#231f20;stroke-linecap:round;stroke-linejoin:round;stroke-width:4px;}</style></defs><title>Asset 5</title><g id="Layer_2" data-name="Layer 2"><g id="Layer_1-2" data-name="Layer 1"><path class="cls-1" d="M113.39,44c-5-.41-9.88-1-14.83-1.24-5.75-.31-11.52-.37-17.28-.55a255.65,255.65,0,0,1-27.34-2.6c-7-1-14.09-2-21.15-2.94-5.33-.68-10.69-1.16-16-1.76-1.9-.21-3.8-.5-5.82-.77,0,.55-.12,1-.14,1.43-.2,3.89-.38,7.79-.59,11.68-.24,4.46-.3,8.94-.83,13.36Q7.94,72.75,6,84.83c-2.21,14-2.7,28-2.68,42.15,0,2.22.8,3.35,2.93,4a64.4,64.4,0,0,0,7,1.75,86.52,86.52,0,0,0,14.65,1.09,113.18,113.18,0,0,1,20.46,1.79,53.27,53.27,0,0,0,17.36.9,44.38,44.38,0,0,1,11.57.17c4.8.63,9.61,1.16,14.43,1.66,3.26.34,6.53.56,9.8.81,1.23.1,2.46.1,3.69.19.8.06,1-.37,1.1-1,.13-1.27.3-2.53.43-3.79.91-8.79,1.88-17.57,2.72-26.36.64-6.79,1.15-13.6,1.66-20.4.61-8.13,1.13-16.27,1.74-24.4.45-6,1-12.08,1.52-18.11C114.43,44.36,114.21,44.07,113.39,44Z"/><path d="M32.56,1.14c1.52-.92,1.52-.92,3.57,1.1.23-.16.49-.35.75-.51A7.9,7.9,0,0,1,38.07,1,1.72,1.72,0,0,1,40.7,2.56,12.85,12.85,0,0,1,40.64,5c-.07.64.06.89.75.94Q50.66,6.64,60,7.36q10.38.83,20.75,1.71c2.94.25,5.89.51,8.83.8.68.06,1-.12,1-.84a18.09,18.09,0,0,1,.15-2.21,1.39,1.39,0,0,1,1.7-1.36c.7.07,1.4.2,2.1.32a12.25,12.25,0,0,0,4.75.09,3.13,3.13,0,0,1,.44,0c2.48-.13,3.5.91,3.33,3.37,0,.52-.12,1-.2,1.67l5.63.38,6.11.37a9.41,9.41,0,0,1,1,.13c3.45.59,4.83,2.5,4.55,6-.51,6.24-1,12.48-1.38,18.73-.48,7.94-.73,15.88-1.27,23.81-.55,8.16-1.32,16.31-2,24.46-.54,6.42-1.12,12.83-1.67,19.25-.83,9.5-1.64,19-2.5,28.51-.18,2-.55,4-.89,6a8.74,8.74,0,0,1-.65,2.11c-.84,1.88-2.6,2.64-5.2,2.53-7.43-.31-14.72-1.69-22-3a55.48,55.48,0,0,0-12.78-1.13c-3,.14-5.89.44-8.83.71a39.84,39.84,0,0,1-11-.81A121.53,121.53,0,0,0,27,137.23,78,78,0,0,1,10.54,136a26.53,26.53,0,0,1-7.88-2.86A4.75,4.75,0,0,1,0,129.1c-.08-2.21,0-4.43,0-6.64.2-6.88.34-13.77.68-20.64A178.92,178.92,0,0,1,3.33,80.18,237.13,237.13,0,0,0,6.88,49.39c.37-9,1.22-18,1.8-27,.26-3.92.34-7.85.58-11.77A22.8,22.8,0,0,1,9.9,6.38a3.79,3.79,0,0,1,5.39-2.65,6.52,6.52,0,0,0,2.1.24c3.59.29,7.18.56,10.77.87.56,0,.83-.08.91-.65.11-.79.27-1.57.4-2.35s.12-1.54,1-1.78A1.73,1.73,0,0,1,32.56,1.14Zm-21.62,33c0,.55-.12,1-.14,1.43-.2,3.89-.38,7.79-.59,11.68-.24,4.46-.3,8.94-.83,13.36Q7.94,72.75,6,84.83c-2.21,14-2.7,28-2.68,42.15,0,2.22.8,3.35,2.93,4a64.4,64.4,0,0,0,7,1.75,86.52,86.52,0,0,0,14.65,1.09,113.18,113.18,0,0,1,20.46,1.79,53.27,53.27,0,0,0,17.36.9,44.38,44.38,0,0,1,11.57.17c4.8.63,9.61,1.16,14.43,1.66,3.26.34,6.53.56,9.8.81,1.23.1,2.46.1,3.69.19.8.06,1-.37,1.1-1,.13-1.27.3-2.53.43-3.79.91-8.79,1.88-17.57,2.72-26.36.64-6.79,1.15-13.6,1.66-20.4.61-8.13,1.13-16.27,1.74-24.4.45-6,1-12.08,1.52-18.11.08-.87-.14-1.16-1-1.23-5-.41-9.88-1-14.83-1.24-5.75-.31-11.52-.37-17.28-.55a255.65,255.65,0,0,1-27.34-2.6c-7-1-14.09-2-21.15-2.94-5.33-.68-10.69-1.16-16-1.76C14.86,34.7,13,34.41,10.94,34.14Zm103.5,8.43a2.9,2.9,0,0,0,.14-.48c.24-2.65.5-5.29.71-7.94.42-5.24.79-10.49,1.21-15.73.16-2.07-.76-3.22-2.83-3.36-3.66-.24-7.31-.44-11-.69-.55,0-.81.13-.9.69a30.88,30.88,0,0,1-.62,3.48c-.12.47-.57,1.1-1,1.18a3.42,3.42,0,0,1-1.67-.47c-.18-.08-.28-.34-.44-.55-1.78,1.54-2.48-.29-3.57-1.12a13,13,0,0,1-1.1.89,2.38,2.38,0,0,1-2.4.47A2.07,2.07,0,0,1,90,16.79c0-.8.08-1.6.16-2.39.07-.61-.08-.89-.78-.94C83.11,13,76.9,12.6,70.69,12.05,63.54,11.43,56.4,10.69,49.26,10c-2.62-.25-5.23-.5-7.85-.78-.78-.09-1.06.16-1,.95s-.09,1.83-.17,2.74a1.43,1.43,0,0,1-1.62,1.47c-.24,0-.47,0-.71-.07A18.17,18.17,0,0,0,31.62,14a5.48,5.48,0,0,1-1.85-.07,2.2,2.2,0,0,1-2-2.47,15.69,15.69,0,0,1,.36-2.54c.21-1,.2-1.09-.85-1.24-2.42-.35-4.84-.77-7.28-1-1.89-.2-3.72-.87-5.69-.53-.93.16-1.37.51-1.44,1.42-.21,2.83-.44,5.65-.63,8.48-.35,5-.67,10-1,14.93-.1,1.38-.16,1.38,1.24,1.55,3.42.42,6.86.8,10.28,1.25,5,.65,10.06,1.42,15.11,2,7.27.82,14.58,1.4,21.85,2.26,8.69,1,17.41,1.67,26.15,1.83a180.12,180.12,0,0,1,22.85,1.93Z"/><path class="cls-2" d="M114.44,42.57l-5.79-.85A180.12,180.12,0,0,0,85.8,39.79C77.06,39.63,68.34,39,59.65,38c-7.27-.86-14.58-1.44-21.85-2.26-5-.57-10.07-1.34-15.11-2-3.42-.45-6.86-.83-10.28-1.25-1.4-.17-1.34-.17-1.24-1.55.36-5,.68-9.95,1-14.93.19-2.83.42-5.65.63-8.48.07-.91.51-1.26,1.44-1.42,2-.34,3.8.33,5.69.53,2.44.26,4.86.68,7.28,1,1.05.15,1.06.2.85,1.24a15.69,15.69,0,0,0-.36,2.54,2.2,2.2,0,0,0,2,2.47,5.48,5.48,0,0,0,1.85.07,18.17,18.17,0,0,1,6.24.34c.24,0,.47.06.71.07a1.43,1.43,0,0,0,1.62-1.47c.08-.91.17-1.83.17-2.74s.27-1,1-.95c2.62.28,5.23.53,7.85.78,7.14.7,14.28,1.44,21.43,2.06,6.21.55,12.42,1,18.64,1.41.7,0,.85.33.78.94C90,15.19,90,16,90,16.79a2.07,2.07,0,0,0,1.1,2.15,2.38,2.38,0,0,0,2.4-.47,13,13,0,0,0,1.1-.89c1.09.83,1.79,2.66,3.57,1.12.16.21.26.47.44.55a3.42,3.42,0,0,0,1.67.47c.39-.08.84-.71,1-1.18a30.88,30.88,0,0,0,.62-3.48c.09-.56.35-.72.9-.69,3.65.25,7.3.45,11,.69,2.07.14,3,1.29,2.83,3.36-.42,5.24-.79,10.49-1.21,15.73-.21,2.65-.47,5.29-.71,7.94A2.9,2.9,0,0,1,114.44,42.57Z"/><circle class="cls-3" cx="43.19" cy="72.27" r="2.4"/><circle class="cls-3" cx="74.46" cy="75.46" r="2.4"/><path class="cls-4" d="M48.51,82.82A16,16,0,0,1,66,84.68"/></g></g></svg>